<?xml version="1.0" encoding="utf-8" ?><svg xmlns="http://www.w3.org/2000/svg" xmlns:xlink="http://www.w3.org/1999/xlink" width="848" height="260" viewBox="87 121 848 260"><path fill="#FFFFFF" transform="scale(0.333333 0.333333)" d="M666.231 394.153C729.785 392.871 798.406 393.898 862.244 394.161C850.411 403.928 827.628 427.642 816.085 438.973L725.598 527.711C618.949 632.1 511.675 739.279 403.784 842.135L403.785 1004.13C389.759 1017.42 375.845 1030.82 362.043 1044.34C329.15 1076.61 296.053 1108.67 262.752 1140.52L262.78 785.862C299.845 751.221 337.694 713.829 374.076 678.399L546.454 510.687C585.853 472.242 626.354 432.007 666.231 394.153Z"/><path fill="#FFFFFF" transform="scale(0.333333 0.333333)" d="M544.365 778.852C547.421 779.346 623.542 856.443 632.06 864.937L808.782 1041.19C842.857 1075.28 878.138 1111.91 913.006 1144.86C873.735 1144.33 833.808 1144.7 794.5 1144.74L716.702 1144.51C643.762 1074.81 572.794 999.992 500.124 929.765C474.973 905.459 449.867 878.105 424.292 854.649C438.206 846.687 454.073 836.034 467.744 827.347L544.365 778.852Z"/><path fill="#FFFFFF" transform="scale(0.333333 0.333333)" d="M2615.29 643.335C2626.13 641.878 2662.37 643.023 2675.24 643.037L2805.4 642.977C2786.88 661.373 2768.23 679.648 2749.47 697.801L2663.43 697.725C2649.19 697.719 2633.98 697.436 2619.75 698.065C2612.55 698.384 2605.55 702.853 2601.03 708.534C2596.61 714.188 2594.74 721.429 2595.88 728.516C2599.71 753.658 2629.56 751.085 2647.89 751.007L2699.17 750.805C2710.55 750.77 2726.02 750.203 2736.89 752.116C2750.23 754.505 2762.79 760.087 2773.5 768.383C2789.6 780.835 2800.07 799.199 2802.57 819.398C2805.1 839.526 2799.46 859.829 2786.91 875.766C2771.51 895.28 2751.39 904.104 2727.25 906.799L2535.4 906.87C2553.3 889.106 2571.02 870.642 2589.19 853.27C2635.23 852.906 2681.45 854.424 2727.47 853.475C2752.78 852.953 2757.96 810.41 2732.99 804.836C2695.29 796.421 2646.78 807.355 2609.13 800.881C2596.13 798.609 2583.86 793.269 2573.34 785.303C2556.82 772.828 2545.88 754.337 2542.9 733.846C2536.44 686.769 2569.36 649.363 2615.29 643.335Z"/><path fill="#FFFFFF" transform="scale(0.333333 0.333333)" d="M2317.69 643.375C2325.38 642.166 2365.94 643.08 2376.19 643.081L2506.54 642.738L2450.75 697.754L2360.42 697.72C2352.69 697.72 2325.47 697.279 2319.51 698.229C2312.56 699.291 2306.35 703.138 2302.31 708.881C2298.26 714.713 2296.81 721.969 2298.31 728.912C2303.45 753.621 2332.74 750.771 2351.67 750.772L2401.41 750.707C2412.87 750.67 2426.8 750.068 2437.9 751.824C2449.21 753.61 2460.01 757.833 2469.53 764.201C2486.89 775.598 2498.89 793.536 2502.81 813.927C2506.36 833.88 2501.98 854.433 2490.59 871.197C2477.04 890.979 2457.3 901.746 2434.12 905.925C2422.75 907.654 2383.93 906.858 2371.08 906.853L2241.64 906.752C2257.71 889.577 2277.78 870.591 2294.7 853.907L2382.19 853.928C2396.82 853.948 2412.29 854.95 2426.83 853.832C2432.77 853.375 2440.71 848.841 2444.51 844.144C2448.6 839.096 2451.06 832.186 2450.17 825.706C2448.85 816.195 2443.5 808.629 2434.53 804.878C2414.8 796.625 2338.9 805.767 2310.17 800.849C2297.15 798.575 2284.87 793.203 2274.36 785.186C2257.55 772.341 2246.64 753.249 2244.1 732.243C2241.46 711.508 2247.29 690.583 2260.28 674.209C2274.99 655.745 2294.53 646.097 2317.69 643.375Z"/><path fill="#FFFFFF" transform="scale(0.333333 0.333333)" d="M1657.39 642.988L1780.52 643.052C1796.49 643.022 1833.52 642.046 1847.61 643.949C1859.88 645.524 1871.69 649.634 1882.29 656.019C1902.79 668.346 1916.95 687.1 1922.48 710.443C1927.82 732.543 1923.98 755.864 1911.85 775.09C1897.89 797.432 1878.36 809.05 1853.19 814.938L1932.13 906.917L1862.61 906.875C1842.08 881.866 1818.09 855.364 1796.81 830.652L1785.51 817.691C1767.79 817.515 1750.06 817.464 1732.34 817.538L1732.22 906.861L1678.1 906.865L1678.19 762.846L1786.31 762.882C1804.09 762.94 1827.05 763.954 1844.46 761.804C1857.81 760.156 1869.16 743.779 1869.14 729.924C1869.15 720.942 1865.58 712.325 1859.22 705.98C1855.16 701.903 1849.99 699.106 1844.35 697.935C1834.96 696.037 1808.74 696.675 1798.1 696.68L1712.37 696.834L1657.39 642.988Z"/><path fill="#FFFFFF" transform="scale(0.333333 0.333333)" d="M1367.59 642.946L1489.32 643.062C1530.42 643.085 1568.01 636.787 1600.21 668.116C1616.39 683.716 1625.69 705.13 1626.03 727.608C1626.41 750.824 1617.44 773.22 1601.13 789.745C1590.38 800.69 1576.96 808.634 1562.19 812.789C1545.4 817.37 1517.7 816.031 1499.33 815.987C1479.43 815.914 1459.52 815.941 1439.62 816.069L1439.45 906.732C1422.25 907.347 1401.43 906.805 1383.94 906.832L1384.01 761.555C1420.53 761.272 1457.04 761.209 1493.56 761.365C1512.87 761.378 1546.47 765.526 1560.63 752.609C1577.73 737.01 1570.6 702.925 1546.53 698.989C1531.25 696.489 1513.37 697.702 1497.66 697.757L1423.1 697.7C1404.58 680.43 1385.49 660.938 1367.59 642.946Z"/><path fill="#FFFFFF" transform="scale(0.333333 0.333333)" d="M1980.22 752.17L2160.3 752.148C2143.47 770.072 2123.01 789.526 2105.41 807.083L2035.87 807.026L2035.68 853.814L2152.25 853.809C2175.28 853.947 2198.3 853.873 2221.33 853.589C2203.47 870.001 2185.29 889.626 2167.16 906.712L1980.13 906.811L1980.22 752.17Z"/><path fill="#FFFFFF" transform="scale(0.333333 0.333333)" d="M1041.78 640.682C1050.14 647.146 1080.45 679.168 1088.64 687.467L1178.25 776.809C1192.52 764.202 1210.52 745.516 1224.45 731.903L1317.91 640.676L1317.84 717.759C1272.01 759.606 1223.1 809.463 1178.09 853.096C1132.27 809.154 1086.82 762.399 1041.74 717.533C1041.6 691.917 1041.61 666.299 1041.78 640.682Z"/><path fill="#F90A25" transform="scale(0.333333 0.333333)" d="M264.064 413.472C267.962 415.572 300.726 448.947 307.203 455.421C338.303 486.631 369.606 517.639 401.108 548.443L334.986 612.656C311.715 635.613 287.467 658.477 263.957 681.292L264.064 413.472Z"/><path fill="#FFFFFF" transform="scale(0.333333 0.333333)" d="M913.259 639.726L970.871 639.819L970.947 906.835L913.363 906.737L913.259 639.726Z"/><path fill="#FFFFFF" transform="scale(0.333333 0.333333)" d="M1962.53 642.956L2212.44 643.051C2202.8 652.057 2193.13 661.776 2183.68 671.029C2175.3 679.36 2166.99 687.75 2158.73 696.198C2115.15 698.008 2061.8 696.898 2017.8 696.483C2000.23 680.96 1979.59 659.6 1962.53 642.956Z"/><path fill="#FFFFFF" transform="scale(0.333333 0.333333)" d="M1316.64 760.793C1318.98 763.4 1318.01 891.719 1318.01 906.85L1262.3 906.753L1261.86 906.374C1260.18 903.063 1260.92 825.522 1260.93 815.839C1279.81 798.313 1297.72 778.841 1316.64 760.793Z"/><path fill="#FFFFFF" transform="scale(0.333333 0.333333)" d="M1041.58 759.422C1045.75 762.405 1058.45 775.636 1062.32 779.591L1098.83 817.007L1098.72 906.817L1041.68 906.809L1041.58 759.422Z"/></svg>