<?xml version="1.0" encoding="utf-8"?>
<svg xmlns="http://www.w3.org/2000/svg" width="300" height="300" viewBox="87 121 280 280">
<rect width="300" height="300" fill="#0a0a0a"/>
<path fill="#FFFFFF" transform="scale(0.333333 0.333333)" d="M666.231 394.153C729.785 392.871 798.406 393.898 862.244 394.161C850.411 403.928 827.628 427.642 816.085 438.973L725.598 527.711C618.949 632.1 511.675 739.279 403.784 842.135L403.785 1004.13C389.759 1017.42 375.845 1030.82 362.043 1044.34C329.15 1076.61 296.053 1108.67 262.752 1140.52L262.78 785.862C299.845 751.221 337.694 713.829 374.076 678.399L546.454 510.687C585.853 472.242 626.354 432.007 666.231 394.153Z"/>
<path fill="#FFFFFF" transform="scale(0.333333 0.333333)" d="M544.365 778.852C547.421 779.346 623.542 856.443 632.06 864.937L808.782 1041.19C842.857 1075.28 878.138 1111.91 913.006 1144.86C873.735 1144.33 833.808 1144.7 794.5 1144.74L716.702 1144.51C643.762 1074.81 572.794 999.992 500.124 929.765C474.973 905.459 449.867 878.105 424.292 854.649C438.206 846.687 454.073 836.034 467.744 827.347L544.365 778.852Z"/>
<path fill="#FFFFFF" transform="scale(0.333333 0.333333)" d="M2615.29 643.335C2626.13 641.878 2662.37 643.023 2675.24 643.037L2805.4 642.977C2786.88 661.373 2768.23 679.648 2749.47 697.801L2663.43 697.725C2649.19 697.719 2633.98 697.436 2619.75 698.065C2612.55 698.384 2605.55 702.853 2601.03 708.534C2596.61 714.188 2594.74 721.429 2595.88 728.516C2599.71 753.658 2629.56 751.085 2647.89 751.007L2699.17 750.805C2710.55 750.77 2726.02 750.203 2736.89 752.116C2750.23 754.505 2762.79 760.087 2773.5 768.383C2789.6 780.835 2800.07 799.199 2802.57 819.398C2805.1 839.526 2799.46 859.829 2786.91 875.766C2771.51 895.28 2751.39 904.104 2727.25 906.799L2535.4 906.87C2553.3 889.106 2571.02 870.642 2589.19 853.27C2635.23 852.906 2681.45 854.424 2727.47 853.475C2752.78 852.953 2757.96 810.41 2732.99 804.836C2695.29 796.421 2646.78 807.355 2609.13 800.881C2596.13 798.609 2583.86 793.269 2573.34 785.303C2556.82 772.828 2545.88 754.337 2542.9 733.846C2536.44 686.769 2569.36 649.363 2615.29 643.335Z"/>
</svg>